<svg xmlns="http://www.w3.org/2000/svg" width="148.752" height="53.56" viewBox="0 0 148.752 53.56">
  <g id="logo-alert4sud" transform="translate(8728.837 753.988)">
    <path id="Tracé_1884" data-name="Tracé 1884" d="M-40.564,8.685V-19.687h5.675V3.849h5.836V8.685Zm13.122,0V-19.687h11.349v5.481h-5.578v5.529h5.352v5.336h-5.352v6.5h5.949V8.685Zm13.59,0V-19.687h8.705a4.8,4.8,0,0,1,3.289.991A4.972,4.972,0,0,1-.367-15.923,20.318,20.318,0,0,1,.012-11.74,9.659,9.659,0,0,1-.577-8.032,3.4,3.4,0,0,1-2.793-6.114,2.542,2.542,0,0,1-.915-4.784a6,6,0,0,1,.54,2.732V8.685H-5.969V-2.422q0-1.241-.508-1.54a3.375,3.375,0,0,0-1.636-.3V8.685ZM-8.081-9.177h1.37q1.177,0,1.177-2.563a5.808,5.808,0,0,0-.258-2.176.98.98,0,0,0-.967-.516H-8.081ZM4.316,8.685V-14.239H.947v-5.449H13.36v5.449H9.991V8.685ZM22.388,8.7V4.2H13.972V-.229L19.341-19.7h8.834V-.536H29.69V4.2H28.175V8.7ZM19.034-.536h3.353v-14.3ZM37.993,8.943q-3.885,0-5.6-1.935T30.674.851V-1.922h5.61V1.624a3.291,3.291,0,0,0,.3,1.54,1.079,1.079,0,0,0,1.04.556,1.189,1.189,0,0,0,1.072-.451,2.787,2.787,0,0,0,.3-1.483A7.874,7.874,0,0,0,38.734-.4a4.894,4.894,0,0,0-.895-1.677,18.756,18.756,0,0,0-1.765-1.862L33.527-6.355a8.258,8.258,0,0,1-2.853-6.158,8.092,8.092,0,0,1,1.685-5.529,6.17,6.17,0,0,1,4.877-1.9q3.9,0,5.538,2.08t1.636,6.319H38.637V-13.5a1.2,1.2,0,0,0-.33-.9,1.226,1.226,0,0,0-.895-.322,1.216,1.216,0,0,0-.991.379,1.476,1.476,0,0,0-.314.975,3.078,3.078,0,0,0,.322,1.29,5.719,5.719,0,0,0,1.274,1.6l3.273,3.144a18.9,18.9,0,0,1,1.806,1.975A8.578,8.578,0,0,1,44.1-2.946,9.915,9.915,0,0,1,44.6.415a11.4,11.4,0,0,1-1.475,6.263Q41.652,8.943,37.993,8.943Zm15.057,0q-3.547,0-5.223-1.991a8.893,8.893,0,0,1-1.677-5.86v-20.78h5.513V.867a11.117,11.117,0,0,0,.081,1.362A2.368,2.368,0,0,0,52.115,3.3a1.056,1.056,0,0,0,.935.419A1.083,1.083,0,0,0,54,3.309a2.261,2.261,0,0,0,.363-1.072,12.56,12.56,0,0,0,.073-1.37V-19.687h5.513V1.092a8.893,8.893,0,0,1-1.677,5.86Q56.6,8.943,53.05,8.943Zm9.076-.258V-19.687h7.8a5.923,5.923,0,0,1,4.611,1.7,7.153,7.153,0,0,1,1.548,4.973V.27a11.5,11.5,0,0,1-1.411,6.223q-1.411,2.192-4.941,2.192Zm5.707-5.014h.983a1.361,1.361,0,0,0,1.564-1.515V-12.481A2.936,2.936,0,0,0,70-14.311a2.113,2.113,0,0,0-1.54-.411h-.629Z" transform="translate(-8656.302 -733.981)" fill="#fff"/>
    <path id="Tracé_1885" data-name="Tracé 1885" d="M-40.564,8.607V-19.766h5.675V3.771h5.836V8.607Zm13.122,0V-19.766h11.349v5.481h-5.578v5.529h5.352v5.336h-5.352v6.5h5.949V8.607Zm13.59,0V-19.766h8.705a4.8,4.8,0,0,1,3.289.991A4.972,4.972,0,0,1-.367-16a20.318,20.318,0,0,1,.379,4.183A9.659,9.659,0,0,1-.577-8.11,3.4,3.4,0,0,1-2.793-6.192,2.542,2.542,0,0,1-.915-4.862a6,6,0,0,1,.54,2.732V8.607H-5.969V-2.5q0-1.241-.508-1.54a3.375,3.375,0,0,0-1.636-.3V8.607ZM-8.081-9.255h1.37q1.177,0,1.177-2.563a5.808,5.808,0,0,0-.258-2.176.98.98,0,0,0-.967-.516H-8.081ZM4.316,8.607V-14.317H.947v-5.449H13.36v5.449H9.991V8.607Z" transform="translate(-8656.302 -733.903)" fill="#fff"/>
    <path id="Tracé_1884-2" data-name="Tracé 1884" d="M-9508.615-135.428a3.6,3.6,0,0,1-.664-.062,3.589,3.589,0,0,1-2.852-2.806l-6.5-31.733-3.09,11.208a3.588,3.588,0,0,1-3.459,2.635h-9.559a3.588,3.588,0,0,1-3.588-3.589,3.588,3.588,0,0,1,3.588-3.589h6.824l6.336-22.989a3.59,3.59,0,0,1,3.459-2.635l.121,0a3.591,3.591,0,0,1,3.4,2.866l7.74,37.78,4.012-6.206a3.591,3.591,0,0,1,3.014-1.641h106.674a3.589,3.589,0,0,1,3.588,3.589,3.589,3.589,0,0,1-3.588,3.589h-104.719l-7.719,11.94A3.588,3.588,0,0,1-9508.615-135.428Z" transform="translate(809.492 -565)" fill="#ff3c38"/>
  </g>
</svg>
